<svg width="512" height="102" viewBox="0 0 512 102" fill="none" xmlns="http://www.w3.org/2000/svg">
<path d="M0 59.4206V102L33.6822 81.7748L0 59.4206Z" fill="#1769E3"/>
<path d="M55.7663 32.3957L0 0V32.3957L55.7663 66.4111L111.533 32.3957V0L55.7663 32.3957Z" fill="url(#paint0_linear_4_7)"/>
<path d="M111.533 59.4206V102L77.8506 81.7748L111.533 59.4206Z" fill="#1769E3"/>
<path d="M145.75 17.1086H156.58L182.047 76.7548H182.925L208.391 17.1086H219.222V88.9647H210.733V34.3709H210.001L186.584 88.9647H178.388L154.97 34.3709H154.239V88.9647H145.75V17.1086Z" fill="black"/>
<path d="M240.489 88.9647H230.976L258.491 17.1086H267.858L295.374 88.9647H285.86L263.467 28.4765H262.882L240.489 88.9647Z" fill="black"/>
<path d="M294.194 24.8275V17.1086H350.395V24.8275H326.831V88.9647H317.757V24.8275H294.194Z" fill="black"/>
<path d="M363.78 88.9647V17.1086H389.1C394.954 17.1086 399.76 18.0676 403.516 19.9857C407.273 21.8803 410.053 24.4884 411.859 27.8098C413.664 31.1313 414.566 34.9089 414.566 39.1426C414.566 43.3763 413.664 47.1305 411.859 50.4052C410.053 53.6799 407.285 56.2529 403.553 58.1241C399.821 59.972 395.052 60.8959 389.246 60.8959L392.746 60.7752L389.246 53.0357L388.954 53.0367C392.954 53.0367 396.174 52.4753 398.613 51.3525C401.077 50.2298 402.858 48.6392 403.955 46.5808C405.077 44.4991 405.638 42.0197 405.638 39.1426C405.638 36.2656 405.077 33.7511 403.955 31.5991C402.833 29.4472 401.04 27.7864 398.577 26.6169C396.113 25.424 392.856 24.8275 388.807 24.8275H372.854V88.9647H363.78ZM399.052 56.6856L417.493 88.9647H406.956L398.506 72.6626L390.502 55.8128L399.052 56.6856Z" fill="black"/>
<path d="M439.381 17.1086V88.9647H430.307V17.1086H439.381Z" fill="black"/>
<path d="M461.966 17.1086L481.285 47.0019H481.87L501.19 17.1086H511.874L488.31 53.0367L511.874 88.9647H501.19L481.87 59.6328H481.285L461.966 88.9647H451.282L475.431 53.0367L451.282 17.1086H461.966Z" fill="black"/>
<defs>
<linearGradient id="paint0_linear_4_7" x1="55.7663" y1="0" x2="55.7663" y2="66.4111" gradientUnits="userSpaceOnUse">
<stop stop-color="#0C8FEE"/>
<stop offset="1" stop-color="#1769E3"/>
</linearGradient>
</defs>
</svg>
